<svg xmlns="http://www.w3.org/2000/svg" viewBox="0 0 512 512">
  <defs>
    <linearGradient id="grad" x1="0%" y1="0%" x2="100%" y2="100%">
      <stop offset="0%" style="stop-color:#3ECE8D;stop-opacity:1" />
      <stop offset="100%" style="stop-color:#2db87a;stop-opacity:1" />
    </linearGradient>
  </defs>
  
  <g fill="none" stroke="url(#grad)" stroke-width="16" stroke-linecap="round" stroke-linejoin="round">
    
    <!-- Center Hexagon -->
    <path d="M256 160 L325 200 V280 L256 320 L187 280 V200 Z" stroke-width="20" />
    
    <!-- AI Text -->
    <path d="M230 270 L245 220 L260 270 M235 255 H255" stroke-width="14" />
    <path d="M275 220 V270" stroke-width="14" />
    
    <!-- Brain Circuit Arcs -->
    <!-- Left -->
    <path d="M170 240 H140" />
    <path d="M140 240 C80 240 60 180 100 120 C140 60 220 60 256 80" stroke-dasharray="30 20"/>
    
    <!-- Right -->
    <path d="M342 240 H372" />
    <path d="M372 240 C432 240 452 180 412 120 C372 60 292 60 256 80" stroke-dasharray="30 20"/>
    
    <!-- Nodes -->
    <circle cx="140" cy="240" r="12" fill="#3ECE8D" stroke="none"/>
    <circle cx="372" cy="240" r="12" fill="#3ECE8D" stroke="none"/>
    <circle cx="256" cy="80" r="12" fill="#3ECE8D" stroke="none"/>
    <circle cx="100" cy="120" r="12" fill="#3ECE8D" stroke="none"/>
    <circle cx="412" cy="120" r="12" fill="#3ECE8D" stroke="none"/>

    <!-- Bottom Network/Mountain -->
    <path d="M60 420 L160 360 L256 400 L352 360 L452 420" />
    <circle cx="60" cy="420" r="10" fill="#3ECE8D" stroke="none"/>
    <circle cx="160" cy="360" r="10" fill="#3ECE8D" stroke="none"/>
    <circle cx="256" cy="400" r="10" fill="#3ECE8D" stroke="none"/>
    <circle cx="352" cy="360" r="10" fill="#3ECE8D" stroke="none"/>
    <circle cx="452" cy="420" r="10" fill="#3ECE8D" stroke="none"/>
    
    <!-- Curved Horizon Line -->
    <path d="M30 460 Q 256 420 482 460" opacity="0.6"/>
  </g>
</svg>